<?xml version="1.0" standalone="no"?>
<!DOCTYPE svg PUBLIC "-//W3C//DTD SVG 20010904//EN"
 "http://www.w3.org/TR/2001/REC-SVG-20010904/DTD/svg10.dtd">
<svg version="1.0" xmlns="http://www.w3.org/2000/svg"
 width="82.000000pt" height="79.000000pt" viewBox="0 0 82.000000 79.000000"
 preserveAspectRatio="xMidYMid meet">

<g transform="translate(0.000000,79.000000) scale(0.100000,-0.100000)"
fill="#000000" stroke="none">
<path d="M406 695 c-12 -31 -6 -102 9 -115 20 -17 27 3 23 70 -3 53 -20 76
-32 45z"/>
<path d="M193 614 c-4 -10 9 -30 35 -57 34 -34 42 -38 48 -24 4 11 -4 29 -22
51 -35 42 -53 51 -61 30z"/>
<path d="M596 590 c-38 -43 -43 -55 -25 -66 14 -8 78 64 79 89 0 27 -15 20
-54 -23z"/>
<path d="M345 521 c-99 -46 -148 -152 -114 -250 12 -33 19 -37 36 -20 8 8 9
19 2 38 -18 44 -1 108 38 152 63 69 156 73 218 9 30 -31 49 -37 61 -19 9 15
-44 68 -91 90 -51 24 -99 24 -150 0z"/>
<path d="M75 431 c-3 -6 -4 -15 -1 -20 7 -11 105 -35 113 -28 13 14 -8 35 -42
41 -20 4 -42 9 -50 12 -7 3 -16 1 -20 -5z"/>
<path d="M695 415 c-5 -1 -43 -10 -82 -20 -187 -43 -325 -133 -387 -252 -36
-71 -3 -74 43 -3 67 103 180 172 358 218 75 19 108 32 108 42 0 14 -20 22 -40
15z"/>
<path d="M570 276 c-32 -76 -124 -123 -191 -98 -19 8 -30 7 -38 -1 -17 -17
-13 -24 20 -36 69 -24 158 -2 206 50 24 26 53 89 53 114 0 32 -31 13 -50 -29z"/>
<path d="M143 230 c-24 -10 -43 -26 -43 -35 0 -20 9 -19 65 5 26 11 45 25 43
32 -7 19 -20 19 -65 -2z"/>
</g>
</svg>
